<svg width="55" height="50" viewBox="0 0 55 50" fill="none" xmlns="http://www.w3.org/2000/svg">
<path d="M53.2811 30.4593C50.2995 31.1162 47.8552 32.3802 45.7942 34.1837C44.2833 31.844 42.1494 29.6006 40.2506 27.5809C39.0438 26.2971 37.5258 24.4034 35.523 24.0383C35.7542 23.8843 35.9376 23.6554 36.0296 23.341C36.2952 22.4391 36.7378 21.6092 37.4105 20.8783C37.74 20.5205 38.1534 20.2144 38.554 19.9198C38.7374 19.7849 38.9638 19.7119 39.1352 19.5627C39.359 19.3681 39.4698 19.0719 39.6197 18.8287C41.6628 16.8683 43.4234 14.1689 44.9796 12.189C47.0884 9.50622 50.0103 5.37464 47.6348 2.17429C45.0558 -1.30018 39.505 0.0291175 36.2695 1.7557C31.3284 4.39247 27.8231 8.72569 24.4947 12.7798C24.4454 12.6143 24.3576 12.4499 24.2187 12.2937C20.611 8.23356 7.52096 -2.70717 1.63116 3.97778C-4.15857 10.5487 6.74971 19.8111 14.2752 22.1946C8.86661 24.9834 4.98827 30.7264 3.20383 35.7682C2.25635 38.4452 1.80859 44.9603 5.8333 46.1737C9.4676 47.2696 13.1422 43.4912 15.2463 41.4899C18.6386 38.2631 21.4876 34.6449 24.5171 31.1642C24.5693 31.357 24.6521 31.5675 24.8059 31.8234C25.7809 33.4463 27.3464 34.5976 28.9913 35.6973C31.1396 37.1336 33.565 38.2688 35.9672 39.3448C37.3173 39.9494 38.9231 40.8253 40.5155 41.0932C38.2191 43.3283 36.9416 45.634 37.4165 48.8177C37.5548 49.7451 38.4715 50.2756 39.4892 49.8524C43.4425 48.2084 46.6643 44.9389 49.2681 41.9678C51.8716 38.9969 54.7693 35.4663 54.9984 31.5971C55.0447 30.8127 54.0996 30.2787 53.2811 30.4593ZM46.4698 41.1961C44.6705 43.17 42.5566 45.2687 40.0935 46.7523C40.2443 44.7758 41.0383 42.979 42.1455 41.0882C42.1557 41.0711 42.1557 41.0537 42.1635 41.0365C42.7543 40.7406 42.9165 40.0354 42.412 39.5202C41.5075 38.5954 40.0872 38.1997 38.8512 37.6954C36.9033 36.8998 35.0057 36.0176 33.1546 35.0638C31.2934 34.1045 29.5418 32.996 28.0083 31.666C27.5644 31.2812 25.7355 29.6871 25.6551 29.1368C25.6193 28.8917 25.2507 28.8005 25.1184 29.0159C24.5299 28.5054 23.3677 28.3606 22.698 29.117C18.4448 33.9205 14.3905 40.5049 8.15958 43.5624C4.51901 45.3487 5.99519 36.9416 6.46236 35.6973C8.26263 30.9002 12.1135 26.4971 16.0011 22.8403C16.0764 22.7693 16.1298 22.6942 16.1651 22.6178C17.0958 22.569 17.6953 21.3852 16.6851 20.989C11.5791 18.987 -0.0224487 11.4778 3.70744 5.78985C7.31276 0.291288 19.7393 11.6659 22.2598 13.9982C22.8393 14.5342 23.5215 14.4646 23.9893 14.1208C24.2596 14.4352 24.8379 14.5864 25.211 14.2455C28.3718 11.3586 31.4947 8.4791 34.9313 5.8335C36.7847 4.40676 38.8458 3.15931 41.2632 2.61366C43.6704 2.07036 45.8614 3.47656 45.4211 5.58588C44.7646 8.73166 41.7916 11.6901 39.6379 14.1629C38.6645 15.2807 36.5834 16.9457 36.2187 18.5637C36.0105 18.6848 35.8044 18.8136 35.5971 18.9579C34.2981 19.86 33.5223 21.2709 33.0749 22.6316C32.6967 23.7814 34.0307 24.4759 35.0466 24.2384C35.0624 24.4016 35.3348 24.4642 35.454 24.3151C34.563 25.4261 37.5709 28.5366 38.3251 29.5327C40.0848 31.8567 41.8887 34.2586 43.8183 36.4791C43.7938 37.3508 45.2873 38.1225 46.0767 37.3155C47.8143 35.538 49.6125 34.1889 51.9343 33.3359C51.0062 36.2276 48.4717 39.0005 46.4698 41.1961Z" fill="#00B2A0"/>
</svg>
