<svg width="55" height="50" viewBox="0 0 55 50" fill="none" xmlns="http://www.w3.org/2000/svg">
<path d="M48.3952 47.7223C48.2367 47.714 48.0736 47.7066 47.9137 47.6989C48.2054 47.1231 47.8261 46.3137 47.1375 46.1613C45.1168 45.7132 43.0353 45.9451 40.9508 45.3812C37.6061 44.4763 34.4919 42.8234 31.6175 41.0342C25.9399 37.4995 19.8764 30.9615 27.728 26.3245C28.657 25.7763 28.387 24.137 27.121 24.2514C25.1505 24.4299 23.177 24.5269 21.2008 24.6291C22.2463 24.0899 23.0945 22.8291 23.751 22.083C25.0765 20.5762 26.5995 19.9738 28.6966 19.8577C30.0117 19.7849 30.2064 18.1985 28.9995 17.7889C28.7718 17.7116 28.551 17.3937 28.3368 17.2569C27.8308 16.9336 27.3125 16.6816 26.7517 16.4486C26.2331 16.2332 25.7025 16.0449 25.1706 15.859C27.805 15.0165 29.4604 12.1083 32.6363 11.9803C33.791 11.9338 34.3015 10.7301 33.548 9.94465C32.7406 9.10294 32.1378 8.22855 31.4696 7.3956C33.1242 7.32176 34.7753 7.39188 36.4299 7.63438C36.9924 7.71699 37.4714 6.95336 36.8537 6.70449C34.3782 5.70712 31.6856 5.59504 29.0507 5.22849C27.5422 5.01866 26.7747 6.62852 28.0255 7.47767C29.0294 8.15923 29.6959 9.06681 30.3724 9.97945C29.3134 10.2764 28.3279 10.7285 27.3521 11.3904C25.9227 12.3601 24.1527 13.3707 23.1112 14.6967C22.7686 15.1331 23.0535 15.7472 23.5316 15.9812C23.552 16.0916 23.6131 16.1947 23.7355 16.2595C24.3827 16.6024 25.042 16.9251 25.6904 17.2664C25.8254 17.3374 26.288 17.5961 26.7239 17.8627C25.1796 18.0718 23.7851 18.604 22.5458 19.6745C21.8876 20.2429 21.3435 20.9273 20.7497 21.551C19.9916 22.3473 19.1344 22.8033 18.9779 23.9067C18.8975 24.4737 19.5209 24.8273 20.0298 24.8796C20.1191 24.8889 20.2029 24.869 20.2899 24.8655C19.8822 25.2538 20.0545 26.0385 20.8177 26.0783C21.809 26.1301 22.7993 26.1803 23.7892 26.2377C19.0727 30.4749 21.7386 36.3584 26.7655 40.7136C28.6061 42.3081 32.7592 45.2524 37.0484 47.1852C23.2766 46.3206 8.32945 43.7341 3.91448 30.3442C1.35423 22.5789 5.59691 14.1447 11.3847 8.64768C14.4369 5.74882 18.3453 3.83006 22.5834 2.9416C27.6341 1.88261 31.6143 4.00643 36.0207 5.83568C37.1369 6.2989 38.2395 5.12969 37.3542 4.23751C31.1583 -2.00644 20.5314 -0.551164 13.5171 3.46963C5.28018 8.1911 0.216532 17.148 0.00461348 25.9837C-0.215345 35.1637 7.46167 43.2505 16.2451 46.625C26.505 50.5669 37.534 50.2299 48.3952 49.6503C49.7377 49.5783 49.7391 47.7916 48.3952 47.7223Z" fill="#00B2A0"/>
<path d="M54.7899 44.1407C53.7742 41.9994 52.0476 40.1715 50.0401 38.5858C50.0599 34.9076 50.1093 31.2282 50.0746 27.5503C50.0734 27.4198 50.0567 27.2987 50.0295 27.1853C50.1745 25.8023 50.0625 24.4548 49.8023 23.1053C49.8043 23.1042 49.8066 23.1026 49.8086 23.1016C50.7528 22.8657 51.5178 22.1592 52.2661 21.6065C52.8665 21.1629 53.4727 20.7129 54.0387 20.2282C54.1536 20.1424 54.2618 20.0489 54.3675 19.9552C56.0051 18.4956 53.5204 16.2064 51.8787 17.6531C51.6335 17.8691 51.3716 18.0677 51.1097 18.2654C50.9363 18.396 50.76 18.5238 50.5845 18.6518C50.4912 18.7195 50.3976 18.787 50.3037 18.8542C50.5575 18.6717 50.0903 19.0043 50.0938 19.0019C49.7231 19.2635 49.3156 19.5137 48.9348 19.7886C48.6684 18.9419 48.3312 18.0499 47.8207 17.3477C48.2396 17.166 48.6425 16.9655 49.0023 16.7317C50.4981 15.7609 51.8092 14.0807 51.0934 12.3104C50.6724 11.2695 49.8649 10.5297 48.8519 9.95391C48.629 9.82721 48.3806 9.71087 48.136 9.59374C47.991 9.35868 47.8293 9.13078 47.6274 8.92175C47.5307 8.82135 47.4327 8.74459 47.3354 8.66225C47.3727 8.38655 47.1944 8.08747 46.8197 8.10102C46.6626 8.10659 46.5087 8.10394 46.3539 8.10288C45.9551 7.98255 45.5597 7.98202 45.1731 8.06994C43.922 8.02133 42.7467 8.03541 41.6478 8.94433C40.9115 9.5531 40.5859 10.3369 40.5781 11.1765C39.547 13.4358 39.2679 16.2215 41.9059 17.5201C42.3352 17.7315 42.801 17.8608 43.2782 17.9501C43.0034 18.8149 42.7964 19.6861 42.6316 20.5645C40.9173 20.9137 39.1389 21.815 37.6917 22.3608C35.5676 22.9727 36.4512 26.0092 38.6129 25.4514C39.8353 25.1359 41.0097 24.6798 42.1885 24.2474C42.1351 25.095 42.1052 25.9521 42.0934 26.8214C42.0909 27.0108 42.1512 27.2217 42.2436 27.4212C41.9381 28.2871 41.6222 29.2695 41.4163 30.2348C41.1424 31.1155 40.8639 31.9955 40.5635 32.8694C37.6589 31.4016 33.822 29.8693 31.329 31.3912C31.3218 31.3822 31.3134 31.3737 31.306 31.3647C30.3986 30.2478 28.4994 31.1899 29.2399 32.4821C33.8909 40.5991 43.1166 45.1509 52.6098 46.7642C54.3692 47.0627 55.4859 45.608 54.7899 44.1407ZM34.021 34.2768C34.3466 34.3432 34.6866 34.4441 35.0206 34.5294C34.9792 34.7669 35.0189 35.0149 35.1578 35.2309C35.1891 35.2792 35.2293 35.3228 35.2615 35.3703C34.842 35.0147 34.4239 34.6572 34.021 34.2768ZM43.5588 34.4638C43.6524 34.4088 43.7417 34.3406 43.8212 34.2518C44.4182 33.5886 44.5595 32.8279 44.6781 32.0239C45.2088 30.9931 45.6711 29.941 46.0579 28.8682C46.2744 28.8956 46.4961 28.911 46.7157 28.9312C46.7054 31.3862 46.7166 33.8412 46.735 36.2965C45.6737 35.6402 44.5986 35.0311 43.5588 34.4638Z" fill="#00B2A0"/>
</svg>
